<svg xmlns="http://www.w3.org/2000/svg" xmlns:xlink="http://www.w3.org/1999/xlink" width="500" zoomAndPan="magnify" viewBox="0 0 375 149.999998" height="200" preserveAspectRatio="xMidYMid meet" version="1.2"><defs><clipPath id="f4c593a817"><path d="M 1 41 L 57 41 L 57 83 L 1 83 Z M 1 41 "/></clipPath><clipPath id="2e8df66905"><path d="M -2.171875 49.902344 L 54.003906 33.433594 L 64.160156 68.0625 L 7.980469 84.535156 Z M -2.171875 49.902344 "/></clipPath><clipPath id="9799766820"><path d="M -2.171875 49.902344 L 54.003906 33.433594 L 64.160156 68.0625 L 7.980469 84.535156 Z M -2.171875 49.902344 "/></clipPath><clipPath id="97e0dba5ac"><path d="M -2.171875 49.902344 L 54.003906 33.433594 L 64.160156 68.0625 L 7.980469 84.535156 Z M -2.171875 49.902344 "/></clipPath><clipPath id="d5a2ca916d"><path d="M 15 50 L 49 50 L 49 70 L 15 70 Z M 15 50 "/></clipPath><clipPath id="3fe73a5ec6"><path d="M -2.171875 49.902344 L 54.003906 33.433594 L 64.160156 68.0625 L 7.980469 84.535156 Z M -2.171875 49.902344 "/></clipPath><clipPath id="b4969af492"><path d="M -2.171875 49.902344 L 54.003906 33.433594 L 64.160156 68.0625 L 7.980469 84.535156 Z M -2.171875 49.902344 "/></clipPath><clipPath id="2a8bdb314f"><path d="M -2.171875 49.902344 L 54.003906 33.433594 L 64.160156 68.0625 L 7.980469 84.535156 Z M -2.171875 49.902344 "/></clipPath></defs><g id="11354020d4"><g style="fill:#2727e6;fill-opacity:1;"><g transform="translate(14.86365, 101.125089)"><path style="stroke:none" d="M 29.78125 -22.015625 C 32.257812 -21.484375 34.253906 -20.25 35.765625 -18.3125 C 37.273438 -16.375 38.03125 -14.160156 38.03125 -11.671875 C 38.03125 -8.085938 36.773438 -5.242188 34.265625 -3.140625 C 31.765625 -1.046875 28.269531 0 23.78125 0 L 3.796875 0 L 3.796875 -42.921875 L 23.109375 -42.921875 C 27.472656 -42.921875 30.882812 -41.921875 33.34375 -39.921875 C 35.8125 -37.921875 37.046875 -35.210938 37.046875 -31.796875 C 37.046875 -29.265625 36.382812 -27.160156 35.0625 -25.484375 C 33.738281 -23.816406 31.976562 -22.660156 29.78125 -22.015625 Z M 14.25 -25.5625 L 21.09375 -25.5625 C 22.800781 -25.5625 24.113281 -25.9375 25.03125 -26.6875 C 25.945312 -27.4375 26.40625 -28.546875 26.40625 -30.015625 C 26.40625 -31.484375 25.945312 -32.601562 25.03125 -33.375 C 24.113281 -34.15625 22.800781 -34.546875 21.09375 -34.546875 L 14.25 -34.546875 Z M 21.953125 -8.4375 C 23.703125 -8.4375 25.054688 -8.832031 26.015625 -9.625 C 26.972656 -10.425781 27.453125 -11.578125 27.453125 -13.078125 C 27.453125 -14.585938 26.953125 -15.769531 25.953125 -16.625 C 24.953125 -17.488281 23.578125 -17.921875 21.828125 -17.921875 L 14.25 -17.921875 L 14.25 -8.4375 Z M 21.953125 -8.4375 "/></g></g><g style="fill:#2727e6;fill-opacity:1;"><g transform="translate(51.485393, 101.125089)"><path style="stroke:none" d="M 14.25 -28.4375 C 15.46875 -30.3125 16.992188 -31.785156 18.828125 -32.859375 C 20.660156 -33.941406 22.703125 -34.484375 24.953125 -34.484375 L 24.953125 -23.421875 L 22.078125 -23.421875 C 19.460938 -23.421875 17.503906 -22.859375 16.203125 -21.734375 C 14.898438 -20.609375 14.25 -18.640625 14.25 -15.828125 L 14.25 0 L 3.796875 0 L 3.796875 -34.109375 L 14.25 -34.109375 Z M 14.25 -28.4375 "/></g></g><g style="fill:#2727e6;fill-opacity:1;"><g transform="translate(73.984232, 101.125089)"><path style="stroke:none" d="M 19.328125 0.484375 C 15.984375 0.484375 12.972656 -0.226562 10.296875 -1.65625 C 7.628906 -3.082031 5.53125 -5.117188 4 -7.765625 C 2.476562 -10.410156 1.71875 -13.507812 1.71875 -17.0625 C 1.71875 -20.5625 2.488281 -23.644531 4.03125 -26.3125 C 5.582031 -28.988281 7.703125 -31.039062 10.390625 -32.46875 C 13.078125 -33.894531 16.09375 -34.609375 19.4375 -34.609375 C 22.78125 -34.609375 25.796875 -33.894531 28.484375 -32.46875 C 31.179688 -31.039062 33.300781 -28.988281 34.84375 -26.3125 C 36.394531 -23.644531 37.171875 -20.5625 37.171875 -17.0625 C 37.171875 -13.550781 36.382812 -10.460938 34.8125 -7.796875 C 33.25 -5.128906 31.109375 -3.082031 28.390625 -1.65625 C 25.679688 -0.226562 22.660156 0.484375 19.328125 0.484375 Z M 19.328125 -8.5625 C 21.316406 -8.5625 23.015625 -9.296875 24.421875 -10.765625 C 25.828125 -12.234375 26.53125 -14.332031 26.53125 -17.0625 C 26.53125 -19.789062 25.847656 -21.890625 24.484375 -23.359375 C 23.117188 -24.828125 21.4375 -25.5625 19.4375 -25.5625 C 17.40625 -25.5625 15.710938 -24.835938 14.359375 -23.390625 C 13.015625 -21.941406 12.34375 -19.832031 12.34375 -17.0625 C 12.34375 -14.332031 13.003906 -12.234375 14.328125 -10.765625 C 15.660156 -9.296875 17.328125 -8.5625 19.328125 -8.5625 Z M 19.328125 -8.5625 "/></g></g><g style="fill:#2727e6;fill-opacity:1;"><g transform="translate(109.260928, 101.125089)"><path style="stroke:none" d="M 17.671875 0.484375 C 14.691406 0.484375 12.039062 -0.0195312 9.71875 -1.03125 C 7.394531 -2.050781 5.5625 -3.445312 4.21875 -5.21875 C 2.875 -7 2.117188 -8.988281 1.953125 -11.1875 L 12.296875 -11.1875 C 12.410156 -10.007812 12.957031 -9.050781 13.9375 -8.3125 C 14.914062 -7.582031 16.117188 -7.21875 17.546875 -7.21875 C 18.847656 -7.21875 19.851562 -7.472656 20.5625 -7.984375 C 21.28125 -8.492188 21.640625 -9.15625 21.640625 -9.96875 C 21.640625 -10.945312 21.128906 -11.671875 20.109375 -12.140625 C 19.097656 -12.609375 17.445312 -13.128906 15.15625 -13.703125 C 12.71875 -14.265625 10.679688 -14.863281 9.046875 -15.5 C 7.421875 -16.132812 6.015625 -17.132812 4.828125 -18.5 C 3.648438 -19.863281 3.0625 -21.707031 3.0625 -24.03125 C 3.0625 -25.988281 3.597656 -27.769531 4.671875 -29.375 C 5.753906 -30.988281 7.34375 -32.265625 9.4375 -33.203125 C 11.539062 -34.140625 14.039062 -34.609375 16.9375 -34.609375 C 21.21875 -34.609375 24.585938 -33.546875 27.046875 -31.421875 C 29.515625 -29.304688 30.929688 -26.492188 31.296875 -22.984375 L 21.640625 -22.984375 C 21.484375 -24.171875 20.960938 -25.109375 20.078125 -25.796875 C 19.203125 -26.492188 18.050781 -26.84375 16.625 -26.84375 C 15.40625 -26.84375 14.46875 -26.609375 13.8125 -26.140625 C 13.164062 -25.671875 12.84375 -25.03125 12.84375 -24.21875 C 12.84375 -23.238281 13.359375 -22.503906 14.390625 -22.015625 C 15.429688 -21.523438 17.054688 -21.035156 19.265625 -20.546875 C 21.785156 -19.890625 23.835938 -19.242188 25.421875 -18.609375 C 27.015625 -17.984375 28.410156 -16.96875 29.609375 -15.5625 C 30.816406 -14.15625 31.441406 -12.269531 31.484375 -9.90625 C 31.484375 -7.90625 30.921875 -6.117188 29.796875 -4.546875 C 28.679688 -2.984375 27.070312 -1.753906 24.96875 -0.859375 C 22.875 0.0351562 20.441406 0.484375 17.671875 0.484375 Z M 17.671875 0.484375 "/></g></g><g style="fill:#2727e6;fill-opacity:1;"><g transform="translate(139.707714, 101.125089)"><path style="stroke:none" d="M 24.640625 0 L 14.25 -14.3125 L 14.25 0 L 3.796875 0 L 3.796875 -45.25 L 14.25 -45.25 L 14.25 -20.234375 L 24.578125 -34.109375 L 37.484375 -34.109375 L 23.296875 -17 L 37.59375 0 Z M 24.640625 0 "/></g></g><g style="fill:#2727e6;fill-opacity:1;"><g transform="translate(173.822792, 101.125089)"><path style="stroke:none" d="M 9.046875 -37.65625 C 7.210938 -37.65625 5.710938 -38.195312 4.546875 -39.28125 C 3.390625 -40.363281 2.8125 -41.695312 2.8125 -43.28125 C 2.8125 -44.914062 3.390625 -46.269531 4.546875 -47.34375 C 5.710938 -48.425781 7.210938 -48.96875 9.046875 -48.96875 C 10.835938 -48.96875 12.3125 -48.425781 13.46875 -47.34375 C 14.632812 -46.269531 15.21875 -44.914062 15.21875 -43.28125 C 15.21875 -41.695312 14.632812 -40.363281 13.46875 -39.28125 C 12.3125 -38.195312 10.835938 -37.65625 9.046875 -37.65625 Z M 14.25 -34.109375 L 14.25 0 L 3.796875 0 L 3.796875 -34.109375 Z M 14.25 -34.109375 "/></g></g><g style="fill:#2727e6;fill-opacity:1;"><g transform="translate(188.190255, 101.125089)"><path style="stroke:none" d="M 35.953125 -17.609375 C 35.953125 -16.628906 35.890625 -15.609375 35.765625 -14.546875 L 12.109375 -14.546875 C 12.265625 -12.429688 12.941406 -10.8125 14.140625 -9.6875 C 15.347656 -8.570312 16.832031 -8.015625 18.59375 -8.015625 C 21.195312 -8.015625 23.007812 -9.113281 24.03125 -11.3125 L 35.15625 -11.3125 C 34.582031 -9.070312 33.550781 -7.050781 32.0625 -5.25 C 30.582031 -3.457031 28.71875 -2.050781 26.46875 -1.03125 C 24.226562 -0.0195312 21.722656 0.484375 18.953125 0.484375 C 15.609375 0.484375 12.628906 -0.226562 10.015625 -1.65625 C 7.410156 -3.082031 5.375 -5.117188 3.90625 -7.765625 C 2.445312 -10.410156 1.71875 -13.507812 1.71875 -17.0625 C 1.71875 -20.601562 2.4375 -23.695312 3.875 -26.34375 C 5.320312 -29 7.347656 -31.039062 9.953125 -32.46875 C 12.566406 -33.894531 15.566406 -34.609375 18.953125 -34.609375 C 22.253906 -34.609375 25.1875 -33.914062 27.75 -32.53125 C 30.320312 -31.144531 32.332031 -29.164062 33.78125 -26.59375 C 35.226562 -24.03125 35.953125 -21.035156 35.953125 -17.609375 Z M 25.25 -20.359375 C 25.25 -22.148438 24.632812 -23.578125 23.40625 -24.640625 C 22.1875 -25.703125 20.660156 -26.234375 18.828125 -26.234375 C 17.078125 -26.234375 15.597656 -25.722656 14.390625 -24.703125 C 13.191406 -23.679688 12.453125 -22.234375 12.171875 -20.359375 Z M 25.25 -20.359375 "/></g></g><g style="fill:#2727e6;fill-opacity:1;"><g transform="translate(222.183042, 101.125089)"><path style="stroke:none" d="M 17.671875 0.484375 C 14.691406 0.484375 12.039062 -0.0195312 9.71875 -1.03125 C 7.394531 -2.050781 5.5625 -3.445312 4.21875 -5.21875 C 2.875 -7 2.117188 -8.988281 1.953125 -11.1875 L 12.296875 -11.1875 C 12.410156 -10.007812 12.957031 -9.050781 13.9375 -8.3125 C 14.914062 -7.582031 16.117188 -7.21875 17.546875 -7.21875 C 18.847656 -7.21875 19.851562 -7.472656 20.5625 -7.984375 C 21.28125 -8.492188 21.640625 -9.15625 21.640625 -9.96875 C 21.640625 -10.945312 21.128906 -11.671875 20.109375 -12.140625 C 19.097656 -12.609375 17.445312 -13.128906 15.15625 -13.703125 C 12.71875 -14.265625 10.679688 -14.863281 9.046875 -15.5 C 7.421875 -16.132812 6.015625 -17.132812 4.828125 -18.5 C 3.648438 -19.863281 3.0625 -21.707031 3.0625 -24.03125 C 3.0625 -25.988281 3.597656 -27.769531 4.671875 -29.375 C 5.753906 -30.988281 7.34375 -32.265625 9.4375 -33.203125 C 11.539062 -34.140625 14.039062 -34.609375 16.9375 -34.609375 C 21.21875 -34.609375 24.585938 -33.546875 27.046875 -31.421875 C 29.515625 -29.304688 30.929688 -26.492188 31.296875 -22.984375 L 21.640625 -22.984375 C 21.484375 -24.171875 20.960938 -25.109375 20.078125 -25.796875 C 19.203125 -26.492188 18.050781 -26.84375 16.625 -26.84375 C 15.40625 -26.84375 14.46875 -26.609375 13.8125 -26.140625 C 13.164062 -25.671875 12.84375 -25.03125 12.84375 -24.21875 C 12.84375 -23.238281 13.359375 -22.503906 14.390625 -22.015625 C 15.429688 -21.523438 17.054688 -21.035156 19.265625 -20.546875 C 21.785156 -19.890625 23.835938 -19.242188 25.421875 -18.609375 C 27.015625 -17.984375 28.410156 -16.96875 29.609375 -15.5625 C 30.816406 -14.15625 31.441406 -12.269531 31.484375 -9.90625 C 31.484375 -7.90625 30.921875 -6.117188 29.796875 -4.546875 C 28.679688 -2.984375 27.070312 -1.753906 24.96875 -0.859375 C 22.875 0.0351562 20.441406 0.484375 17.671875 0.484375 Z M 17.671875 0.484375 "/></g></g><g style="fill:#0e0d12;fill-opacity:1;"><g transform="translate(252.633839, 101.125089)"><path style="stroke:none" d="M 40.96875 -42.921875 L 40.96875 0 L 30.515625 0 L 30.515625 -17.671875 L 14.25 -17.671875 L 14.25 0 L 3.796875 0 L 3.796875 -42.921875 L 14.25 -42.921875 L 14.25 -26.109375 L 30.515625 -26.109375 L 30.515625 -42.921875 Z M 40.96875 -42.921875 "/></g></g><g style="fill:#0e0d12;fill-opacity:1;"><g transform="translate(293.657526, 101.125089)"><path style="stroke:none" d="M 37.484375 -34.109375 L 37.484375 0 L 27.03125 0 L 27.03125 -4.640625 C 25.96875 -3.140625 24.53125 -1.929688 22.71875 -1.015625 C 20.90625 -0.0976562 18.894531 0.359375 16.6875 0.359375 C 14.082031 0.359375 11.78125 -0.21875 9.78125 -1.375 C 7.78125 -2.539062 6.226562 -4.222656 5.125 -6.421875 C 4.03125 -8.617188 3.484375 -11.207031 3.484375 -14.1875 L 3.484375 -34.109375 L 13.875 -34.109375 L 13.875 -15.59375 C 13.875 -13.3125 14.460938 -11.535156 15.640625 -10.265625 C 16.828125 -9.003906 18.421875 -8.375 20.421875 -8.375 C 22.460938 -8.375 24.070312 -9.003906 25.25 -10.265625 C 26.4375 -11.535156 27.03125 -13.3125 27.03125 -15.59375 L 27.03125 -34.109375 Z M 37.484375 -34.109375 "/></g></g><g style="fill:#0e0d12;fill-opacity:1;"><g transform="translate(331.196339, 101.125089)"><path style="stroke:none" d="M 14.25 -29.28125 C 15.226562 -30.875 16.632812 -32.160156 18.46875 -33.140625 C 20.300781 -34.117188 22.398438 -34.609375 24.765625 -34.609375 C 27.578125 -34.609375 30.125 -33.894531 32.40625 -32.46875 C 34.6875 -31.039062 36.488281 -29 37.8125 -26.34375 C 39.132812 -23.695312 39.796875 -20.625 39.796875 -17.125 C 39.796875 -13.613281 39.132812 -10.523438 37.8125 -7.859375 C 36.488281 -5.191406 34.6875 -3.132812 32.40625 -1.6875 C 30.125 -0.238281 27.578125 0.484375 24.765625 0.484375 C 22.359375 0.484375 20.257812 0.00390625 18.46875 -0.953125 C 16.675781 -1.910156 15.269531 -3.179688 14.25 -4.765625 L 14.25 0 L 3.796875 0 L 3.796875 -45.25 L 14.25 -45.25 Z M 29.15625 -17.125 C 29.15625 -19.726562 28.429688 -21.773438 26.984375 -23.265625 C 25.546875 -24.753906 23.765625 -25.5 21.640625 -25.5 C 19.566406 -25.5 17.804688 -24.742188 16.359375 -23.234375 C 14.910156 -21.722656 14.1875 -19.664062 14.1875 -17.0625 C 14.1875 -14.445312 14.910156 -12.382812 16.359375 -10.875 C 17.804688 -9.375 19.566406 -8.625 21.640625 -8.625 C 23.722656 -8.625 25.492188 -9.382812 26.953125 -10.90625 C 28.421875 -12.4375 29.15625 -14.507812 29.15625 -17.125 Z M 29.15625 -17.125 "/></g></g><g clip-rule="nonzero" clip-path="url(#f4c593a817)"><g clip-rule="nonzero" clip-path="url(#2e8df66905)"><g clip-rule="nonzero" clip-path="url(#9799766820)"><g clip-rule="nonzero" clip-path="url(#97e0dba5ac)"><path style=" stroke:none;fill-rule:nonzero;fill:#000000;fill-opacity:1;" d="M 41.539062 42.570312 L 26.46875 41.570312 L 26.292969 41.558594 L 26.152344 41.664062 L 14.003906 50.640625 L 1.578125 59.828125 L 4.816406 60.042969 L 8.550781 60.289062 C 8.226562 61.898438 8.320312 64.730469 10.59375 69.082031 C 9.972656 69.566406 9.675781 70.394531 9.910156 71.195312 C 10.078125 71.765625 10.484375 72.203125 10.988281 72.4375 C 12.03125 77.546875 8.851562 79.234375 7.769531 79.652344 C 7.429688 79.785156 7.183594 80.105469 7.199219 80.46875 C 7.265625 82.019531 11.628906 82.324219 14.175781 82.371094 C 15.304688 82.390625 16.285156 81.585938 16.464844 80.476562 C 17.167969 76.148438 14.851562 72.886719 13.609375 71.488281 C 13.8125 71.0625 13.867188 70.566406 13.726562 70.078125 C 13.480469 69.234375 12.71875 68.683594 11.886719 68.65625 C 11.121094 66.890625 9.613281 62.921875 10.3125 60.40625 L 14.460938 60.683594 C 14.457031 58.355469 17.933594 56.507812 19.148438 55.863281 C 21.8125 54.453125 25.507812 53.015625 29.566406 51.828125 C 33.601562 50.644531 37.464844 49.859375 40.449219 49.613281 C 41.785156 49.503906 45.574219 49.191406 46.890625 51.03125 L 54.351562 45.519531 L 56.960938 43.589844 Z M 41.539062 42.570312 "/></g></g></g></g><g clip-rule="nonzero" clip-path="url(#d5a2ca916d)"><g clip-rule="nonzero" clip-path="url(#3fe73a5ec6)"><g clip-rule="nonzero" clip-path="url(#b4969af492)"><g clip-rule="nonzero" clip-path="url(#2a8bdb314f)"><path style=" stroke:none;fill-rule:nonzero;fill:#000000;fill-opacity:1;" d="M 15.761719 60.996094 L 18.339844 69.789062 C 21.84375 65.660156 26.558594 62.46875 32.152344 60.832031 C 37.746094 59.191406 43.4375 59.328125 48.617188 60.914062 L 46.03125 52.101562 C 44.660156 47.425781 14.390625 56.320312 15.761719 60.996094 Z M 15.761719 60.996094 "/></g></g></g></g></g></svg>